<svg version="1" xmlns="http://www.w3.org/2000/svg" width="440" height="440" viewBox="0 0 330.000000 330.000000"><path d="M75 29.9v14.9l-11.2.4c-8.8.3-12.3.9-16.1 2.6-6 2.7-12.2 8.9-15 15l-2.2 4.7-.2 112-.2 112 2.8 5.8c3.7 7.5 6.8 10.7 13.9 14.3l5.7 2.9h225l4.8-2.2c6.5-3 13-9.9 15.5-16.4 2.1-5.3 2.1-6.9 2.1-115.9s0-110.6-2.1-115.9c-2.5-6.5-9.1-13.4-15.5-16.4-3.8-1.6-7.3-2.2-16-2.5l-11.3-.4V15h-30v30H105V15H75v14.9zm-9.8 46.6c.5.6.8.5.8-.3 0-.6.5-1.2 1.1-1.2.6 0 .9.6.6 1.4-.3.8 0 1.7.7 1.9.9.4 1.2-.1.9-1.3-.4-1.7 0-1.9 3.1-1.8 2.6.1 3.5.5 3.4 1.6-.2.8.3 1.6 1 1.8.7.1.8 0 .3-.2-1.9-1 .2-3.4 3-3.4 2.2 0 2.7.4 2.3 1.7-.5 1.7-.5 1.7.6 0s8.7-2.6 7.6-.9c-.3.5.1.9.9.9s1.2-.4.9-.9c-.8-1.3 3.1-.9 4.5.4 1.1 1 1.3 1 .7 0-.5-.9.6-1.2 4.3-1.2 4.3 0 5 .2 4.5 1.7-.5 1.7-.5 1.7.6 0 1.3-1.9 6-2.3 6.1-.5 0 1 .2 1 .6 0 .2-.6.9-1.2 1.5-1.2s.8.6.5 1.4c-.3.8 0 1.7.7 1.9.9.4 1.2-.1.9-1.3-.4-1.7 0-1.9 3.1-1.8 2.6.1 3.5.5 3.4 1.6-.2.8.3 1.6 1 1.8.7.1.8 0 .3-.2-.6-.3-.7-1.2-.4-2 .4-1 2-1.4 5.9-1.3 2.9.1 5.1.6 4.8 1.1-.3.4 0 .8.5.8.6 0 1.1-.5 1.1-1.1 0-.6 1.4-.9 3.3-.7 2 .2 3.1.8 2.9 1.6-.1.8.2 1.1.8.7.6-.3.8-1.1.5-1.6-.4-.5.1-.9 1-.9s1.4.4 1.1.8c-.3.5.1.9.9.9s1.2-.4 1-.8c-.3-.4 2.9-.7 7.1-.8 4.1-.1 7.3.3 7 .7-.3.5.1.9.9.9s1.2-.4.9-.9c-.8-1.3 3.1-.9 4.5.4 1.1 1.1 1.2 1 .7 0-.6-1 .9-1.2 6.8-1.1 4.1.1 7.3.6 7 1-.3.5 0 .9.5.9.6 0 1.1-.5 1.1-1 0-.6 1.4-1 3-1 1.7 0 3 .4 3 1 0 .5.5 1 1.1 1 .5 0 .7-.5.4-1-.3-.6.1-1 .9-1 1 0 1.3.6 1 1.7-.5 1.7-.5 1.7.6 0s8.7-2.6 7.6-.9c-.3.5.1.9.9.9s1.2-.4.9-.9c-.8-1.3 3.1-.9 4.5.4 1.1 1 1.3 1 .7 0-.5-.9.6-1.2 4.3-1.2 4.3 0 5 .2 4.5 1.7-.5 1.7-.5 1.7.6 0 1.3-1.9 6-2.3 6.1-.5 0 1 .2 1 .6 0 .2-.6.9-1.2 1.5-1.2s.8.6.5 1.4c-.3.8 0 1.7.7 1.9.9.4 1.2-.1.9-1.3-.4-1.7 0-1.9 3.1-1.8 2.6.1 3.5.5 3.4 1.6-.2.8.3 1.6 1 1.8.7.1.8 0 .3-.2-1.9-1 .2-3.4 3-3.4 2.2 0 2.7.4 2.3 1.7-.5 1.7-.5 1.7.6 0s8.7-2.6 7.6-.9c-.3.5.1.9.9.9s1.2-.4.9-.9c-.8-1.3 3.1-.9 4.5.4 1.1 1.1 1.2 1 .7 0-.6-1 .7-1.2 5.8-1.1l6.6.2-.1 7.6c-.1 4.2-.6 8.2-1.3 9-.8 1.1-.8 1.3.1.7 1-.5 1.3.9 1.2 5.8-.1 6.3-.2 6.6-2.6 6.6-1.3 0-2.2-.4-1.9-.8.3-.5-.1-.9-.9-.9s-1.2.4-.9.9c.3.4-.2.8-1.1.8-1 0-1.4-.5-.9-1.3.6-1 .4-1-.7 0-1.6 1.5-5.3 1.7-4.4.3.3-.6.1-1-.4-1-.6 0-1.1.4-1.1.9s-1.5.8-3.2.7c-2.1-.1-3.2-.6-3-1.4.1-.8-.2-1.1-.8-.7-.6.3-.8 1.1-.4 1.7.8 1.3-7.9.7-8.8-.7-.5-.6-.8-.6-.8.2 0 .7-.5 1.3-1.1 1.3-.6 0-.9-.7-.6-1.5.4-.8.1-1.7-.5-2.1-.7-.5-.8-.2-.3.6.6 1 .4 1.2-1 .6-1.5-.5-1.6-.4-.5.9 1 1.3.9 1.5-.9 1.5-1.1 0-2.1-.6-2.1-1.3 0-.8-.3-.9-.8-.1-.9 1.4-7.3 1.6-8.9.2-.9-.7-1.7-.7-2.5-.1-1.7 1.4-5.1 1.3-6-.1-.5-.8-.8-.7-.8.1 0 1.6-11.9 1.6-13.9-.1-1.2-.8-1.3-.8-.7.2.9 1.6-5.5 1.3-6.6-.3-.5-.6-.8-.6-.8.2 0 .7-.5 1.3-1.1 1.3-.6 0-.9-.7-.6-1.5.4-.8.1-1.7-.5-2.1-.7-.5-.8-.2-.3.6.6 1 .4 1.2-1 .6-1.5-.5-1.6-.4-.5.9 1 1.3.9 1.5-.9 1.5-1.5 0-2-.4-1.5-1.3.5-.8.2-.8-.9.2-1.4 1.1-2 1.1-3.4 0-1.1-.9-1.4-1-.9-.2 1.2 2-14.5 1.4-16.2-.6-1.1-1.4-1.1-1.4-.6.1.3 1 .1 1.8-.5 1.8s-1.1-.6-1.1-1.3c0-.8-.2-.9-.8-.1-1 1.6-6.8 1.2-6.4-.4.1-.8-.2-1.1-.8-.7-.6.3-.8 1.1-.4 1.7.8 1.3-7.9.7-8.8-.7-.5-.6-.8-.6-.8.2 0 .7-.5 1.3-1.1 1.3-.6 0-.9-.7-.6-1.5.4-.8.1-1.7-.5-2.1-.7-.5-.8-.2-.3.6.6 1 .4 1.2-1 .6-1.5-.6-1.6-.4-.4 1 1.1 1.4 1 1.5-1.1 1.2-1.4-.2-2.4-.9-2.2-1.6.1-.8-.2-1.1-.8-.7-.6.3-.8 1.1-.5 1.6.4.5.1.9-.6.9-.6 0-.9-.8-.7-1.8.3-1.1 0-1.9-.7-1.9s-1 .8-.8 1.8c.5 1.7-.2 1.8-7.3 1.7-5.9-.1-8.2-.5-9.2-1.7-1.1-1.4-1.1-1.4-.6.1.3 1 .1 1.8-.5 1.8s-1.1-.6-1.1-1.3c0-.8-.2-.9-.8-.1-1 1.6-6.8 1.2-6.4-.4.1-.8-.2-1.1-.8-.7-.6.3-.8 1-.5 1.5.3.5-4 .9-9.7.8-8.1-.1-10.6-.5-11.6-1.7-1.1-1.5-1.2-1.4-.6 0 .4 1.4-.2 1.7-3.5 1.7-2.5.1-4.1-.4-4.1-1.1 0-.9-.2-.9-.8 0-.4.7-3.1 1.1-6.7 1l-6-.2-.3-14.8-.3-14.8 2.3.3c1.3.2 2.6.7 3 1.3zM270 210v75H60V135h210v75z"/><path d="M85.6 76.9c-.4.5.3.7 1.4.4 2.3-.6 2.6-1.3.6-1.3-.8 0-1.7.4-2 .9zM153.6 76.9c-.4.5.3.7 1.4.4 2.3-.6 2.6-1.3.6-1.3-.8 0-1.7.4-2 .9zM197.6 76.9c-.4.5.3.7 1.4.4 2.3-.6 2.6-1.3.6-1.3-.8 0-1.7.4-2 .9zM245.6 76.9c-.4.5.3.7 1.4.4 2.3-.6 2.6-1.3.6-1.3-.8 0-1.7.4-2 .9zM130.8 79.2c.2 1 .6 1.8.7 1.8.1 0 .5-.8.7-1.8.3-1.1 0-1.9-.7-1.9s-1 .8-.7 1.9zM139.7 78.7c.3.7.6 1.3.8 1.3.2 0 .5-.6.8-1.3.3-.8-.1-1.4-.8-1.4-.7 0-1.1.6-.8 1.4zM178.8 79.2c.2 1 .6 1.8.7 1.8.1 0 .5-.8.7-1.8.3-1.1 0-1.9-.7-1.9s-1 .8-.7 1.9zM187.7 78.3c.4.6 0 .8-1 .4s-1.4-.2-1.1.7c.3.7 1.1 1.3 1.9 1.3.8 0 1.3-.3 1-.5-.3-.3 0-1 .5-1.7.7-.8.5-1.2-.5-1.2-.8 0-1.1.5-.8 1zM71.9 79.3c.8.9 1.6 1.5 1.9 1.2.3-.3 1.2.1 2.1.8 1.4 1.1 1.4 1 .2-.6-.8-.9-1.6-1.5-1.9-1.2-.3.3-1.2-.1-2.1-.8-1.4-1.1-1.4-1-.2.6zM94.1 79.6c0 1.1.3 1.4.6.6.3-.7.2-1.6-.1-1.9-.3-.4-.6.2-.5 1.3zM96.6 79.7c-.6 1.4-.5 1.5.5.6.7-.7 1-1.5.7-1.8-.3-.3-.9.2-1.2 1.2zM119.6 79.3c.3 1 .9 1.5 1.2 1.2.3-.3 0-1.1-.7-1.8-1-.9-1.1-.8-.5.6zM150.1 79.6c0 1.1.3 1.4.6.6.3-.7.2-1.6-.1-1.9-.3-.4-.6.2-.5 1.3zM169.1 79.6c0 1.1.3 1.4.6.6.3-.7.2-1.6-.1-1.9-.3-.4-.6.2-.5 1.3zM209.1 79.6c0 1.1.3 1.4.6.6.3-.7.2-1.6-.1-1.9-.3-.4-.6.2-.5 1.3zM222.2 79.4c1 .7 1.4 1.7 1 2.1-.4.5-.1.5.6.1 1.9-1.1 1.4-2.3-1-2.9-2.1-.5-2.1-.5-.6.7zM231.9 79.3c.8.9 1.6 1.5 1.9 1.2.3-.3 1.2.1 2.1.8 1.4 1.1 1.4 1 .2-.6-.8-.9-1.6-1.5-1.9-1.2-.3.3-1.2-.1-2.1-.8-1.4-1.1-1.4-1-.2.6zM254.1 79.6c0 1.1.3 1.4.6.6.3-.7.2-1.6-.1-1.9-.3-.4-.6.2-.5 1.3zM256.6 79.7c-.6 1.4-.5 1.5.5.6.7-.7 1-1.5.7-1.8-.3-.3-.9.2-1.2 1.2zM61 80c0 .5.5 1 1 1 .6 0 1-.5 1-1 0-.6-.4-1-1-1-.5 0-1 .4-1 1zM85.1 80.6c0 1.1.3 1.4.6.6.3-.7.2-1.6-.1-1.9-.3-.4-.6.2-.5 1.3zM104 80.8c-1.8 1.4-1.9 1.9-.7 1.9.9 0 1.3-.5 1-1-.4-.6 0-.8.9-.5.9.4 1.5 0 1.5-.8 0-1.8 0-1.8-2.7.4zM133.1 80.6c0 1.1.3 1.4.6.6.3-.7.2-1.6-.1-1.9-.3-.4-.6.2-.5 1.3zM147.8 80.8c-.3 1.1 0 1.9.7 1.9s1-.8.7-1.9c-.2-1-.6-1.8-.7-1.8-.1 0-.5.8-.7 1.8zM171.4 80.5c.1.8.6 1.8 1.1 2.2.4.5.5.2 0-.6-.6-1.1-.4-1.3.8-.8 2.3.9 2.1 0-.2-1.3-1.5-.7-1.9-.7-1.7.5zM196.4 80.1c-.4.7-.3.9.4.5.5-.3 1.3 0 1.5.6.4.9.6 1 .6.1.1-1.7-1.6-2.5-2.5-1.2zM203.9 79.2c-.5 1.8-.6 3.8-.1 3.4.7-.8 1.2-3.6.6-3.6-.2 0-.4.1-.5.2zM210.8 80.8c-.3 1.1 0 1.9.7 1.9s1-.8.7-1.9c-.2-1-.6-1.8-.7-1.8-.1 0-.5.8-.7 1.8zM245.1 80.6c0 1.1.3 1.4.6.6.3-.7.2-1.6-.1-1.9-.3-.4-.6.2-.5 1.3zM87.3 81.5c0 .8.4 1.2.9.9.5-.3.6-1 .3-1.5-.9-1.3-1.2-1.1-1.2.6zM247.3 81.5c0 .8.4 1.2.9.9.5-.3.6-1 .3-1.5-.9-1.3-1.2-1.1-1.2.6zM262.6 81.7c-.6 1.4-.5 1.5.5.6.7-.7 1-1.5.7-1.8-.3-.3-.9.2-1.2 1.2zM267.5 81c-.3.5-.4 1-.1 1 .3 0 .1 1.1-.4 2.5-.7 1.8-.6 2.3.3 1.9.7-.2 1.2-1.8 1.2-3.4.1-3.3-.1-3.5-1-2zM67.5 81.9c-.3.5 0 1.3.6 1.7.7.4.9.3.5-.4-.3-.5 0-1.3.6-1.5.9-.4 1-.6.1-.6-.6-.1-1.4.3-1.8.8zM78.7 82.7c.5 1.2.3 1.4-.8.8-.8-.5-1.1-.4-.6 0 .4.5 1.4 1 2.2 1.1 1.2.2 1.2-.2.5-1.7-1.3-2.3-2.2-2.5-1.3-.2zM107.9 82c-.4 3.4-.3 4.4.9 4.6.7.1.8 0 .3-.2-.5-.3-.7-1.6-.5-3 .2-1.3.2-2.4-.1-2.4-.3 0-.6.4-.6 1zM122.7 83.1c.6 2.2 2 2.6 2 .4 0-.8-.6-1.6-1.3-1.9-.7-.3-1 .2-.7 1.5zM227.5 81.9c-.3.5 0 1.3.6 1.7.7.4.9.3.5-.4-.3-.5 0-1.3.6-1.5.9-.4 1-.6.1-.6-.6-.1-1.4.3-1.8.8zM238.7 82.7c.5 1.2.3 1.4-.8.8-.8-.5-1.1-.4-.6 0 .4.5 1.4 1 2.2 1.1 1.2.2 1.2-.2.5-1.7-1.3-2.3-2.2-2.5-1.3-.2zM92.8 82.7c-2.2.5-2.4 2-.3 2 .8 0 1.6-.6 1.9-1.4.3-.7.4-1.2.3-1.2-.1.1-1 .3-1.9.6zM97.4 83.9c0 1.2.6 1.7 1.8 1.3 1-.2 1.8-.9 1.8-1.5s-.3-.7-.7-.4c-.3.4-1.1.3-1.7-.3-.8-.6-1.2-.3-1.2.9zM140.8 82.7c-2.2.5-2.4 2-.3 2 .8 0 1.6-.6 1.9-1.4.3-.7.4-1.2.3-1.2-.1.1-1 .3-1.9.6zM160.6 82.9c-1.9.7-1.9.8 0 1.3 1.3.3 2.1 0 2.1-.8s-.1-1.4-.1-1.3c-.1 0-1 .4-2 .8zM165.3 83.5c0 .8.5 1.1 1 .8.6-.4.8 0 .4 1s-.2 1.4.7 1.1c.7-.3 1.3-1.1 1.3-1.9 0-.8-.3-1.3-.5-1-.3.3-1 0-1.7-.5-.8-.7-1.2-.5-1.2.5zM207.5 83c-.3.5-.3 1 .2 1 .4 0 .1.5-.7 1.1-1.2.8-1.2 1-.1.7.8-.2 1.5-1.2 1.7-2.1.3-1.9-.2-2.2-1.1-.7zM217.4 84.1c0 1.2.4 1.5 1.2.9.6-.6 1.4-.7 1.7-.3.4.3.7.2.7-.4 0-.6-.8-1.3-1.8-1.5-1.2-.4-1.8.1-1.8 1.3zM252.8 82.7c-2.2.5-2.4 2-.3 2 .8 0 1.6-.6 1.9-1.4.3-.7.4-1.2.3-1.2-.1.1-1 .3-1.9.6zM143.6 84.7c-.6 1.4-.5 1.5.5.6.7-.7 1-1.5.7-1.8-.3-.3-.9.2-1.2 1.2zM174.6 84c.5.8.9 2.1 1 2.8.2.8.5 1.7.8 2 .4.3.5-.4.3-1.6-.2-1.2-.9-2.8-1.7-3.5-1-1-1.1-.9-.4.3zM189.3 84.3c-.4.6-.1.7.7.2 1-.6 1.2-.4.7.7-.4 1.2-.1 1.4 1.6 1 1.2-.3 1.6-.7.9-1-.7-.2-1-.7-.8-1.1.3-.4-.2-.8-1-.8s-1.8.5-2.1 1zM127.5 84.9c-.6 1.1 1.3 2.6 2.2 1.7.4-.3.1-.6-.6-.6s-.9-.5-.6-1c.3-.6.4-1 .1-1-.3 0-.7.4-1.1.9zM147.8 86.9c.5 1.3.3 1.4-.9.4-1.2-1-1.5-.8-1.5.6 0 1.2.5 1.7 1.5 1.3 1-.4 1.2-.1.6.9-.4.8-.6 1.2-.2.9.3-.3.6-1 .7-1.5.1-.6.6-1.7 1-2.6.6-1.1.5-1.6-.5-1.6-.8 0-1.1.7-.7 1.6zM182.9 86.6c.6 1.2.7 2.5.3 3-.4.5 0 .3.9-.4.9-.6 1.8-1 2.1-.7.3.3 1.1-.2 1.9-1.2 1.2-1.5 1.2-1.6-.1-.8-2.2 1.4-3.3 1.3-4.8-.5-1.1-1.3-1.2-1.2-.3.6zM199 86c0 .5.5 1 1 1 .6 0 1-.5 1-1 0-.6-.4-1-1-1-.5 0-1 .4-1 1zM210.8 87.2c.2 1 .6 1.8.7 1.8.1 0 .5-.8.7-1.8.3-1.1 0-1.9-.7-1.9s-1 .8-.7 1.9zM223.9 85.7c-.1.5-.1 1.2 0 1.7s-.4.6-1.2.3c-.7-.3-1.4.1-1.4.8 0 .8.7 1.1 1.5.7 1.1-.4 1.3-.1.7.8-.5.9-.4 1.1.4.6.6-.4.8-1.2.5-1.8-.5-.7-.2-.9.8-.6.8.4 1.5.1 1.5-.7 0-.8-.7-1.1-1.5-.7-1 .3-1.3.1-.8-.6.4-.7.5-1.2.2-1.2s-.7.3-.7.7zM64.6 86.9c-1.9.7-1.9.8 0 1.3 1.3.3 2.1 0 2.1-.8s-.1-1.4-.1-1.3c-.1 0-1 .4-2 .8zM103.3 87.3c0 .7 1.3 1.3 2.9 1.4 2.8.1 3.3-.7.6-1.1-.7-.1-1.8-.5-2.4-.8-.6-.4-1.1-.2-1.1.5zM117.1 87.6c0 1.1.3 1.4.6.6.3-.7.2-1.6-.1-1.9-.3-.4-.6.2-.5 1.3zM125.3 87.5c0 .8.5 1.1 1 .8.6-.4.8 0 .4.9-.4 1.2-.1 1.4 1.4 1.1 1.1-.3 1.8-.6 1.7-.7-.2-.1-1.2-.9-2.4-1.9-1.7-1.4-2.1-1.4-2.1-.2zM213.5 87.1c-.4.6-.5 1.2-.2 1.5.2.3.7-.2 1-1.1.7-1.7.1-2-.8-.4zM73.6 88.7c-.6 1.4-.5 1.5.5.6.7-.7 1-1.5.7-1.8-.3-.3-.9.2-1.2 1.2zM75.8 88.8c-.3 1.1 0 1.9.7 1.9s1-.8.7-1.9c-.2-1-.6-1.8-.7-1.8-.1 0-.5.8-.7 1.8zM85 88c0 .5.5 1 1 1 .6 0 1-.5 1-1 0-.6-.4-1-1-1-.5 0-1 .4-1 1zM95.3 89c.1 1.1.5 2 .9 2 .3 0 .6-.9.5-2-.1-1.1-.5-2-.9-2-.3 0-.6.9-.5 2zM119.3 90.2c-.1 2.8.7 3.3 1.1.6.1-.7.5-1.8.8-2.4.4-.6.2-1.1-.5-1.1s-1.3 1.3-1.4 2.9zM133 88c0 .5.5 1 1 1 .6 0 1-.5 1-1 0-.6-.4-1-1-1-.5 0-1 .4-1 1zM157 87.9c0 .9 3.8 1.2 4.4.3.2-.4-.7-.8-2-.8-1.3-.1-2.4.1-2.4.5zM192.6 88.2c.3.5 1 .6 1.5.3 1.3-.9 1.1-1.2-.6-1.2-.8 0-1.2.4-.9.9zM233.6 88.7c-.6 1.4-.5 1.5.5.6.7-.7 1-1.5.7-1.8-.3-.3-.9.2-1.2 1.2zM235.8 88.8c-.3 1.1 0 1.9.7 1.9s1-.8.7-1.9c-.2-1-.6-1.8-.7-1.8-.1 0-.5.8-.7 1.8zM245 88c0 .5.5 1 1 1 .6 0 1-.5 1-1 0-.6-.4-1-1-1-.5 0-1 .4-1 1zM255.3 88.8c.2 1.2.9 2.8 1.7 3.5 1 1 1.1.9.4-.3-.5-.8-.9-2.1-1-2.8-.2-.8-.5-1.7-.8-2-.4-.3-.5.4-.3 1.6zM88 88.9c0 .6.4 1.3 1 1.6.6.3.7-.1.4-.9-.7-1.8-1.4-2.1-1.4-.7zM136 88.9c0 .6.4 1.3 1 1.6.6.3.7-.1.4-.9-.7-1.8-1.4-2.1-1.4-.7zM200 88.4c0 .2.7.7 1.6 1 .8.3 1.2.2.9-.4-.6-1-2.5-1.4-2.5-.6zM248 88.9c0 .6.4 1.3 1 1.6.6.3.7-.1.4-.9-.7-1.8-1.4-2.1-1.4-.7zM110.7 90.7c.4 1 .2 1.4-.4 1-.5-.3-1 0-1 .8 0 1 .4 1.2 1.2.5.7-.5 1.4-.8 1.7-.5.2.3.5-.2.5-1s-.6-1.6-1.3-1.9c-.9-.3-1.1.1-.7 1.1zM163 90.6c.6.6.7 1.4.3 1.7-.3.4-.2.7.4.7.6 0 1.3-.8 1.5-1.8.4-1.2-.1-1.8-1.3-1.8s-1.5.4-.9 1.2zM264.5 89.8c-.5.4-1.1 1.4-1.3 2.2-.2.8 0 1.2.4.8.4-.4 1.2-.3 1.9.2.8.7 1.2.5 1.2-.5 0-.8-.5-1.1-1-.8-.6.4-.8 0-.4-1 .7-1.9.6-2-.8-.9zM69.5 91c-.4.6-1.1.8-1.6.5-.5-.4-.9-.2-.9.3s.8 1.2 1.8 1.4c1.2.4 1.8-.1 1.8-1.3 0-2.2-.2-2.3-1.1-.9zM102.8 90.7c.7.3 1.6.2 1.9-.1.4-.3-.2-.6-1.3-.5-1.1 0-1.4.3-.6.6zM177.4 92.1c0 1.2.4 1.5 1.2.9.6-.6 1.4-.7 1.7-.3.4.3.7.2.7-.4 0-.6-.8-1.3-1.8-1.5-1.2-.4-1.8.1-1.8 1.3zM229.5 91c-.4.6-1.1.8-1.6.5-.5-.4-.9-.2-.9.3s.8 1.2 1.8 1.4c1.2.4 1.8-.1 1.8-1.3 0-2.2-.2-2.3-1.1-.9zM61 92c0 .5.5 1 1 1 .6 0 1-.5 1-1 0-.6-.4-1-1-1-.5 0-1 .4-1 1zM79 91.5c0 .7 3 1.3 3.4.7.3-.4-.4-.9-1.5-.9-1-.1-1.9 0-1.9.2zM91 92.1c0 .3.9.9 1.9 1.2 1.3.3 1.8 0 1.5-.7-.5-1.3-3.4-1.8-3.4-.5zM121.4 92.1c-.3.6-.3 1.3 0 1.6.3.4.6.1.6-.5s1.1-.9 2.7-.6c1.5.3 2.5.3 2.2-.1-1.2-1.1-4.9-1.4-5.5-.4zM139 92.1c0 .3.9.9 1.9 1.2 1.3.3 1.8 0 1.5-.7-.5-1.3-3.4-1.8-3.4-.5zM194.7 92.9c-.3 1.3 0 1.8.7 1.5.7-.3 1.3-1.1 1.3-1.9 0-2.2-1.4-1.8-2 .4zM203.3 92.5c0 .8.6 1.6 1.3 1.9.7.3 1-.2.7-1.5-.6-2.2-2-2.6-2-.4zM208.1 92.8c-.7 1.4-.6 1.9.4 1.9.7 0 1.1-.7.7-1.5-.4-1.1-.1-1.3.8-.7.9.5 1.1.4.6-.3-1-1.6-1.4-1.5-2.5.6zM239 91.5c0 .7 3 1.3 3.4.7.3-.4-.4-.9-1.5-.9-1-.1-1.9 0-1.9.2zM251 92.1c0 .3.9.9 1.9 1.2 1.3.3 1.8 0 1.5-.7-.5-1.3-3.4-1.8-3.4-.5zM219.4 92.8c.3.5 0 1.3-.6 1.5-.9.4-1 .6-.1.6 1.7.1 2.5-1.6 1.2-2.5-.7-.4-.9-.3-.5.4zM75.8 94.8c.3 1 .1 1.3-.6.8-.6-.3-1.3-.2-1.6.3-.4.5.1.8 1 .7 2.1-.3 3.9-3.3 2-3.3-.8 0-1.2.7-.8 1.5zM115.1 94.7c.6.7.9 1.9.6 2.6-.3.8.1 1.4.8 1.4.8 0 1.1-.7.7-1.5-.3-.9-.1-1.3.5-.9.5.3 1 0 1-.7 0-.8-.7-1.2-1.5-.8-.9.3-1.3.1-.9-.5.3-.5 0-1-.8-1-1.1 0-1.2.4-.4 1.4zM167.7 94.7c.3.7.6 1.3.8 1.3.2 0 .5-.6.8-1.3.3-.8-.1-1.4-.8-1.4-.7 0-1.1.6-.8 1.4zM183.5 93.9c-.9 1.5 1.5 2.5 2.8 1.2.9-.9.7-1-.7-.5-1.3.5-1.7.4-1.2-.4.4-.7.5-1.2.2-1.2s-.7.4-1.1.9zM235.8 95.2c.2 1 .6 1.8.7 1.8.1 0 .5-.8.7-1.8.3-1.1 0-1.9-.7-1.9s-1 .8-.7 1.9zM259.5 94c.6.9.4 1.2-.7.8-.8-.4-1.5-.1-1.5.6 0 1.7 2.5 1.6 3.1 0 .3-.8 0-1.6-.6-2-.7-.5-.8-.2-.3.6zM85.1 94.8c-.1.7-.5 1.1-1 .7-.5-.3-1.3 0-1.7.6-.5.8-.3.9.6.4.9-.6 1.2-.4.8.7-.4.8-.1 1.5.7 1.5.8 0 1.1-.7.7-1.5-.3-1-.1-1.3.6-.8.6.3 1.4.1 1.8-.5.4-.7.3-.9-.4-.5-.5.3-1.3 0-1.5-.6-.4-1-.6-1-.6 0zM133.1 95.6c0 1.1.3 1.4.6.6.3-.7.2-1.6-.1-1.9-.3-.4-.6.2-.5 1.3zM158.5 96c2.1 2.4 2.6 2.5 1.9.6-.3-.8-1.3-1.7-2.2-2.1-1.3-.5-1.3-.2.3 1.5zM223.7 94.6c-.3.3-.3 1.3 0 2.2.5 1.1.3 1.3-.8.7-.8-.5-1.1-.4-.6 0 .4.5 1.4 1 2.2 1.1 1.1.2 1.2-.2.5-1.6-.5-.9-.6-2-.3-2.4.3-.3.4-.6.1-.6-.2 0-.7.3-1.1.6zM231.9 94.2c-.9 1.7-.3 5.1 1 6 1.4 1.1 1.4 1.1.5-.2-.6-.8-1-2.5-.9-3.8.1-1.9-.2-2.9-.6-2zM245.3 95.6c.1 1.5.6 2 1.6 1.6 1-.4 1.2-.1.6.8-.5.8-.4 1.1.3.6.6-.4.9-1.3.6-2.1-.4-.8-1-1.3-1.4-1-.5.3-1-.1-1.3-.7-.3-.7-.4-.3-.4.8zM267.1 95.3c-.8 1-.7 1.4.2 1.4.8 0 1.4-.6 1.4-1.4 0-.7-.1-1.3-.2-1.3-.2 0-.8.6-1.4 1.3zM93.5 96.1c-.4.6-.4 1.3-.1 1.6.3.4.6.1.6-.6s.5-.9 1.2-.5.8.3.4-.4c-.9-1.5-1.3-1.5-2.1-.1zM130.8 96.8c-.3 1.1 0 1.9.7 1.9s1-.8.7-1.9c-.2-1-.6-1.8-.7-1.8-.1 0-.5.8-.7 1.8zM150 96.5c-1.1 1.3-1 1.4.5.9 1.4-.6 1.6-.4 1 .6-.5.8-.4 1.1.3.6.6-.4.9-1.3.5-2.1-.7-1.9-.8-1.9-2.3 0zM175 96.1c0 .5.5.7 1 .4.6-.3 1-.8 1-1.1 0-.2-.4-.4-1-.4-.5 0-1 .5-1 1.1zM195.7 96.9c-1 1.2-.9 1.3.3.6.8-.5 2.1-1 2.8-1.1 2.4-.4 2.5-1.3.3-1.1-1.2.1-2.8.8-3.4 1.6zM220 96c-.9.6-1 1-.3 1 .6 0 1.5-.5 1.8-1 .8-1.2.4-1.2-1.5 0zM63 96.4c0 .2.9.6 2 .9 1.1.3 1.8.1 1.4-.4-.5-.9-3.4-1.3-3.4-.5zM101.5 97c-.4.6.1.7 1.1.3 1-.4 1.5-.2 1.1.4-.3.5 0 1 .8 1 1.1 0 1.2-.4.4-1.4-1.4-1.5-2.6-1.7-3.4-.3zM111.5 98c.6 3 1.6 4 1.2 1.2-.2-1.2-.6-2.4-1-2.8-.3-.4-.4.4-.2 1.6zM163.7 97.3c-.3.8.1 1.4.8 1.4.7 0 1.1-.6.8-1.4-.3-.7-.6-1.3-.8-1.3-.2 0-.5.6-.8 1.3zM99.4 99.2c.2 1.5 0 2.9-.5 3.2-.5.2-.4.3.2.2 1.5-.3 2-2.9.8-4.7-.7-1-.8-.6-.5 1.3zM192.5 97.8c-.5.4-1.1 1.2-1.2 1.9-.3 1.3 2.2 1.2 3.4-.2.5-.4.2-.5-.6 0-1.1.6-1.3.4-.8-.8.7-1.9.6-2-.8-.9zM199.9 97.2c-.5 1.8-.6 3.8-.1 3.4.7-.8 1.2-3.6.6-3.6-.2 0-.4.1-.5.2zM215 97.9c1.4 1 .7 1.6-1.3 1.2-.5-.1-.5.3-.2.9.4.6.9.9 1.2.6.3-.3 1.3-.1 2.3.4 1.2.6 1.7.5 1.7-.5 0-.7-.7-1.1-1.4-.8-.8.3-1.3 0-1.1-.7.2-.7-.4-1.5-1.2-1.7-1.3-.4-1.3-.3 0 .6zM127.5 98.9c-.3.5-.2 1.2.3 1.5.5.3.9-.1.9-.9 0-1.7-.3-1.9-1.2-.6zM157.5 99c-.4.6-1.1.8-1.6.5-.5-.4-.9-.2-.9.3s.8 1.2 1.8 1.4c1.2.4 1.8-.1 1.8-1.3 0-2.2-.2-2.3-1.1-.9zM182 98.8c0 .6-1.1.9-2.7.6-1.5-.3-2.5-.3-2.2.1 1.2 1.1 4.9 1.4 5.5.4.3-.6.3-1.3 0-1.6-.3-.4-.6-.1-.6.5zM253.5 99c-.4.6-1.1.8-1.6.5-.5-.4-.9-.2-.9.3s.8 1.2 1.8 1.4c1.2.4 1.8-.1 1.8-1.3 0-2.2-.2-2.3-1.1-.9zM78.6 99.8c-.3.5.1.9.9.9s1.5-.4 1.5-.9c0-.4-.4-.8-.9-.8-.6 0-1.2.4-1.5.8zM87 100c0 .5.9.8 2 .7 2.1-.1 1.8-1-.5-1.3-.8-.1-1.5.2-1.5.6zM107 100.1c0 .3.9.9 1.9 1.2 1.3.3 1.8 0 1.5-.7-.5-1.3-3.4-1.8-3.4-.5zM119 100c0 .5.9.8 2 .7 2.1-.1 1.8-1-.5-1.3-.8-.1-1.5.2-1.5.6zM135 99.8c0 .5.7.9 1.5.9s1.2-.4.9-.9c-.3-.4-.9-.8-1.5-.8-.5 0-.9.4-.9.8zM167 100c0 .5.9.8 2 .7 2.1-.1 1.8-1-.5-1.3-.8-.1-1.5.2-1.5.6zM221.3 100.5c0 .7.6 1.1 1.4.8.7-.3 1.3-.6 1.3-.8 0-.2-.6-.5-1.3-.8-.8-.3-1.4.1-1.4.8zM75.5 101.9c-.9 1.5 1.5 2.5 2.8 1.2.9-.9.7-1-.7-.5-1.3.5-1.7.4-1.2-.4.4-.7.5-1.2.2-1.2s-.7.4-1.1.9zM83.7 102.7c.3.7.6 1.3.8 1.3.2 0 .5-.6.8-1.3.3-.8-.1-1.4-.8-1.4-.7 0-1.1.6-.8 1.4zM115.7 102.7c.3.7.6 1.3.8 1.3.2 0 .5-.6.8-1.3.3-.8-.1-1.4-.8-1.4-.7 0-1.1.6-.8 1.4zM163.7 102.7c.3.7.6 1.3.8 1.3.2 0 .5-.6.8-1.3.3-.8-.1-1.4-.8-1.4-.7 0-1.1.6-.8 1.4zM176.5 102.1c-.4.6-.5 1.2-.2 1.5.2.3.7-.2 1-1.1.7-1.7.1-2-.8-.4zM262.8 101.7c.7.3 1.6.2 1.9-.1.4-.3-.2-.6-1.3-.5-1.1 0-1.4.3-.6.6zM180 193.5L143.5 230l-15.8-15.7-15.8-15.7-7.9 7.9-8 8 23.7 23.7 23.7 23.8 44.5-44.6 44.5-44.5-8-7.9-7.9-8-36.5 36.5z"/></svg>